<svg version="1.0" xmlns="http://www.w3.org/2000/svg"
     width="900.000000pt" height="500.000000pt" viewBox="0 0 900.000000 500.000000"
     preserveAspectRatio="xMidYMid meet">

    <g transform="translate(0.000000,500.000000) scale(0.100000,-0.100000)"
       fill="#000000" stroke="none">
        <path d="M2093 4540 c-68 -41 -63 74 -63 -1545 0 -1027 3 -1472 11 -1486 16
-30 47 -59 75 -69 15 -6 240 -10 552 -10 505 0 528 1 559 20 66 40 68 48 71
322 l3 248 95 0 95 0 -2 -245 c-2 -357 -14 -345 348 -345 l243 0 0 140 0 140
-160 0 -160 0 0 1285 0 1285 23 5 c12 3 173 4 357 3 l335 -3 3 -692 2 -693
370 0 370 0 0 689 c0 619 2 689 16 695 23 9 677 7 691 -2 10 -6 13 -160 15
-693 l3 -684 133 -3 132 -3 0 781 c0 862 3 820 -63 860 -31 19 -54 20 -567 20
-513 0 -536 -1 -567 -20 -64 -39 -68 -53 -70 -270 l-3 -195 -89 -3 -89 -3 -4
199 c-3 219 -7 233 -71 272 -31 19 -54 20 -567 20 -513 0 -536 -1 -567 -20
-56 -34 -61 -56 -65 -271 l-3 -194 -92 -3 -93 -3 0 188 c0 211 -7 239 -69 280
l-34 23 -536 0 c-514 0 -537 -1 -568 -20z m925 -1542 l2 -1288 -360 0 -360 0
0 1284 c0 1018 3 1285 13 1289 6 3 167 5 357 4 l345 -2 3 -1287z"/>
        <path d="M2700 2335 l0 -125 110 0 110 0 0 125 0 125 -110 0 -110 0 0 -125z"/>
        <path d="M2700 1960 l0 -131 108 3 107 3 3 128 3 127 -111 0 -110 0 0 -130z"/>
        <path d="M4255 2791 c-23 -10 -50 -31 -60 -47 -19 -28 -20 -51 -20 -804 0
-731 1 -777 18 -803 10 -16 32 -37 50 -47 30 -19 53 -20 380 -20 l347 0 0 -55
0 -55 -317 0 c-293 0 -321 -2 -361 -20 -60 -27 -81 -77 -82 -192 0 -109 18
-159 69 -190 l36 -23 1217 0 c1213 0 1217 0 1244 21 62 46 69 66 69 187 0 99
-3 116 -23 148 -40 66 -61 69 -417 69 l-315 0 0 55 0 55 340 0 c377 0 388 2
431 61 l24 34 0 770 c0 871 5 818 -78 856 -41 18 -85 19 -1277 19 -1177 0
-1237 -1 -1275 -19z m2355 -851 l0 -590 -1080 0 -1080 0 0 590 0 590 1080 0
1080 0 0 -590z m-42 -1072 c16 -16 15 -53 -2 -67 -12 -10 -477 -13 -2134 -11
-40 0 -61 34 -43 69 l12 21 1077 0 c825 0 1081 -3 1090 -12z"/>
    </g>
</svg>
